<svg width="52" height="29" viewBox="0 0 52 29" fill="none" xmlns="http://www.w3.org/2000/svg">
<path fill-rule="evenodd" clip-rule="evenodd" d="M41.7795 24.7926C47.5946 23.7212 52 18.6251 52 12.5C52 5.59644 46.4036 0 39.5 0C32.5964 0 27 5.59644 27 12.5C27 14.996 27.7316 17.3212 28.992 19.2727H24.2578V28H30.5305V26.0909H26.6271V24.5909H30.2237V22.6818H26.6271V21.1818H30.5069C30.8874 21.5759 31.2935 21.945 31.7227 22.2865V28H34.0408V23.7481C34.1969 23.824 34.3549 23.8967 34.5145 23.9662L36.0522 27.9318H37.4499L38.6068 24.9686C38.8892 24.9885 39.1741 24.9991 39.4613 24.9999V28H41.7795V24.7926ZM41.7795 24.7926V19.2727H38.8306L36.8022 24.2159H36.6999L34.6715 19.2727H31.7227V22.2865C32.436 22.8541 33.2129 23.3455 34.0408 23.7481V22.9205H34.109L34.5145 23.9662C35.783 24.5185 37.161 24.8665 38.6068 24.9686L39.3931 22.9545H39.4613V24.9999C39.4742 25 39.4871 25 39.5 25C40.2785 25 41.0404 24.9288 41.7795 24.7926ZM28.992 19.2727C29.4347 19.9581 29.9426 20.5974 30.5069 21.1818H30.5476V19.2727H28.992ZM4.94744 21.3352C5.13779 21.4943 5.24432 21.7159 5.26705 22H7.53409C7.53125 21.429 7.38921 20.9304 7.10796 20.5043C6.82955 20.0753 6.43324 19.7429 5.91904 19.5071C5.40483 19.2713 4.79546 19.1534 4.09091 19.1534C3.40057 19.1534 2.78835 19.2699 2.25426 19.5028C1.72301 19.7358 1.30682 20.0611 1.00568 20.4787C0.707388 20.8935 0.559662 21.3778 0.562502 21.9318C0.559662 22.6136 0.779831 23.152 1.22301 23.5469C1.66904 23.9389 2.27841 24.2188 3.05114 24.3864L3.92046 24.5739C4.24432 24.6449 4.50142 24.7216 4.69176 24.804C4.8821 24.8835 5.01847 24.9744 5.10085 25.0767C5.18608 25.1761 5.23012 25.2926 5.23296 25.4261C5.23012 25.5682 5.18466 25.6946 5.09659 25.8054C5.00853 25.9162 4.87926 26.0028 4.70881 26.0653C4.53835 26.1278 4.32671 26.1591 4.07387 26.1591C3.77273 26.1591 3.51279 26.1122 3.29404 26.0185C3.07813 25.9247 2.91051 25.7869 2.79119 25.6051C2.67188 25.4233 2.60512 25.1989 2.59091 24.9318H0.340912C0.343752 25.6619 0.500002 26.2614 0.809662 26.7301C1.12216 27.196 1.55966 27.5412 2.12216 27.7656C2.6875 27.9901 3.34943 28.1023 4.10796 28.1023C4.84659 28.1023 5.47869 27.9986 6.00426 27.7912C6.53267 27.5838 6.93892 27.2813 7.22301 26.8835C7.5071 26.4858 7.65057 26 7.65341 25.4261C7.65057 25.0938 7.59659 24.7869 7.49148 24.5057C7.38921 24.2244 7.22869 23.9716 7.00994 23.7472C6.79119 23.5199 6.50994 23.3224 6.16619 23.1548C5.82244 22.9872 5.40909 22.8523 4.92614 22.75L4.21023 22.5966C4.00284 22.554 3.82387 22.5057 3.6733 22.4517C3.52273 22.3977 3.39915 22.3381 3.30256 22.2727C3.20597 22.2045 3.13494 22.1293 3.08949 22.0469C3.04688 21.9616 3.02841 21.8665 3.03409 21.7614C3.03693 21.6335 3.07529 21.5199 3.14915 21.4205C3.22301 21.321 3.33665 21.2429 3.49006 21.1861C3.64631 21.1264 3.84659 21.0966 4.09091 21.0966C4.47443 21.0966 4.75994 21.1761 4.94744 21.3352ZM8.31605 19.2727V21.1818H10.9411V28H13.2763V21.1818H15.9013V19.2727H8.31605ZM16.793 19.2727V28H23.0657V26.0909H19.1623V24.5909H22.7589V22.6818H19.1623V21.1818H23.0827V19.2727H16.793ZM47 11L47 20C47 20.5523 46.5523 21 46 21L37 21C36.4477 21 36 20.5523 36 20C36 19.4477 36.4477 19 37 19L43.5858 19L32.2929 7.70711L33.7071 6.29289L45 17.5858L45 11C45 10.4477 45.4477 10 46 10C46.5523 10 47 10.4477 47 11Z" fill="white"/>
</svg>
